<svg width="23.383728" height="23.385010" viewBox="0 0 23.3837 23.385" fill="none" xmlns="http://www.w3.org/2000/svg" xmlns:xlink="http://www.w3.org/1999/xlink">
	<desc>
			Created with Pixso.
	</desc>
	<defs/>
	<path id="Vector" d="M10 20C12.21 19.99 14.37 19.25 16.12 17.89L21.61 23.38L23.38 21.61L17.88 16.12C19.25 14.37 19.99 12.21 20 10C20 4.48 15.51 0 10 0C4.48 0 0 4.48 0 10C0 15.51 4.48 20 10 20ZM10 2.5C14.13 2.5 17.5 5.86 17.5 10C17.5 14.13 14.13 17.5 10 17.5C5.86 17.5 2.5 14.13 2.5 10C2.5 5.86 5.86 2.5 10 2.5Z" fill="#FFFFFF" fill-opacity="0.600000" fill-rule="nonzero"/>
</svg>
