<svg width="90.000000" height="40.000000" viewBox="0 0 90 40" fill="none" xmlns="http://www.w3.org/2000/svg" xmlns:xlink="http://www.w3.org/1999/xlink">
	<desc>
			Created with Pixso.
	</desc>
	<defs/>
	<path id="Logo" d="M54.62 11.4C54.62 1.29 54.86 0 68.56 0C82.27 0 82.51 1.29 82.51 11.4C82.51 21.52 82.27 22.81 68.56 22.81C66.38 22.81 64.54 22.78 62.99 22.68L62.99 35.55C62.99 38.01 61.11 40 58.8 40C56.49 40 54.62 38.01 54.62 35.55L54.62 13.33C54.62 13.25 54.62 13.18 54.62 13.1C54.62 12.57 54.62 12 54.62 11.4ZM66.77 15L73.03 11.9C73.31 11.76 73.44 11.58 73.44 11.4C73.44 11.22 73.31 11.04 73.03 10.91L66.77 7.8C66.22 7.53 65.77 7.84 65.77 8.48L65.77 14.33C65.77 14.97 66.22 15.27 66.77 15ZM8.33 29.94C6.89 29.94 5.64 29.68 4.59 29.14Q3.61 28.64 2.84 27.92L2.84 27.92Q2.38 27.49 2 26.98C1.32 26.06 0.81 25.02 0.47 23.86Q0.39 23.56 0.32 23.24L0.32 23.24Q0 21.8 0 20.29Q0 18.36 0.51 16.57Q0.53 16.51 0.55 16.45Q1.1 14.58 2.15 13.12C2.87 12.14 3.77 11.37 4.84 10.8C5.91 10.23 7.15 9.94 8.55 9.94C9.14 9.94 9.78 10.02 10.46 10.18C11.16 10.33 11.83 10.55 12.47 10.85Q13.39 11.29 13.98 12L13.99 12Q14.01 12.03 14.03 12.05L12.72 13.6C12.4 13.21 12 12.89 11.52 12.64C11.03 12.37 10.52 12.17 9.98 12.02C9.47 11.88 8.97 11.81 8.5 11.81Q7.34 11.81 6.41 12.27L6.41 12.27Q6.17 12.39 5.94 12.53C5.21 12.99 4.59 13.62 4.09 14.42Q3.33 15.62 2.93 17.12C2.68 18.11 2.56 19.13 2.56 20.16C2.56 21.76 2.8 23.14 3.28 24.32C3.77 25.47 4.45 26.37 5.34 27.01C6.23 27.63 7.27 27.94 8.48 27.94C9.18 27.94 9.94 27.84 10.76 27.62C11.58 27.41 12.43 27.07 13.3 26.61L14.08 28.13C13.71 28.42 13.28 28.67 12.8 28.9C12.33 29.12 11.83 29.3 11.29 29.46C10.77 29.62 10.25 29.74 9.73 29.81Q8.98 29.94 8.33 29.94ZM16.34 10.21L19.02 10.21L19.02 29.62L16.69 29.62L16.69 11.97C16.69 11.95 16.65 11.81 16.59 11.54C16.54 11.28 16.49 11 16.44 10.72C16.39 10.43 16.35 10.26 16.34 10.21ZM26.16 10.21L34.15 23.25C34.3 23.5 34.46 23.77 34.62 24.05C34.79 24.32 34.96 24.58 35.13 24.82L35.08 23.92C35.06 23.6 35.05 23.3 35.05 23.01L35.05 10.21L36.96 10.21L36.96 29.76L35.48 29.76L26.16 14.61C26.03 14.38 25.88 14.14 25.71 13.89C25.56 13.62 25.4 13.38 25.24 13.14C25.27 13.43 25.29 13.72 25.29 14.02C25.3 14.31 25.31 14.59 25.31 14.88L25.31 29.62L23.4 29.62L23.4 11.97L23.05 10.21L26.16 10.21ZM40.95 10.21L51.91 10.21L51.91 12.05L43.63 12.05L43.63 18.74L50.06 18.74L50.06 20.56L43.63 20.56L43.63 27.78L51.91 27.78L51.91 29.62L41.3 29.62L41.3 11.97L40.95 10.21ZM67.04 25.18L67.04 30.24C67.05 30.24 67.05 30.23 67.06 30.22C67.38 29.82 67.75 29.51 68.19 29.29C68.63 29.06 69.12 28.95 69.65 28.95C70.09 28.95 70.48 29.01 70.83 29.14C71.18 29.26 71.47 29.46 71.72 29.73C71.97 30 72.16 30.35 72.29 30.79C72.42 31.22 72.49 31.74 72.49 32.36L72.49 38.51L70.97 38.51L70.97 32.34C70.97 31.85 70.9 31.46 70.76 31.16C70.63 30.86 70.43 30.64 70.16 30.51C69.9 30.37 69.58 30.3 69.2 30.3C68.82 30.3 68.48 30.39 68.17 30.55C67.87 30.72 67.6 30.95 67.38 31.25C67.25 31.42 67.14 31.61 67.04 31.81L67.04 38.51L65.53 38.51L65.53 25.18L67.04 25.18ZM80.46 25.18L80.46 38.51L78.94 38.51L78.94 25.18L80.46 25.18ZM74.76 26.63C74.76 26.37 74.83 26.15 74.98 25.97C75.13 25.79 75.35 25.7 75.65 25.7C75.94 25.7 76.16 25.79 76.31 25.97C76.47 26.15 76.55 26.37 76.55 26.63C76.55 26.88 76.47 27.09 76.31 27.27C76.16 27.45 75.94 27.53 75.65 27.53C75.35 27.53 75.13 27.45 74.98 27.27C74.83 27.09 74.76 26.88 74.76 26.63ZM86.56 38.69C85.94 38.69 85.38 38.58 84.88 38.36C84.38 38.13 83.96 37.82 83.6 37.41C83.24 37.01 82.97 36.53 82.78 35.97C82.59 35.41 82.49 34.81 82.49 34.15L82.49 33.78C82.49 33.02 82.6 32.34 82.81 31.74C83.03 31.14 83.31 30.63 83.68 30.21C84.04 29.8 84.46 29.48 84.92 29.27C85.38 29.05 85.86 28.95 86.36 28.95C86.99 28.95 87.54 29.06 87.99 29.29C88.46 29.53 88.83 29.85 89.13 30.27C89.42 30.68 89.64 31.16 89.78 31.73C89.92 32.28 90 32.89 90 33.55L90 34.27L84.02 34.27C84.03 34.67 84.08 35.05 84.19 35.41C84.31 35.79 84.48 36.14 84.7 36.43C84.93 36.73 85.2 36.96 85.53 37.12C85.85 37.29 86.22 37.38 86.64 37.38C87.17 37.38 87.62 37.26 87.99 37.03C88.36 36.8 88.69 36.49 88.97 36.1L89.88 36.87C89.69 37.18 89.45 37.47 89.15 37.75C88.86 38.03 88.5 38.25 88.07 38.43C87.64 38.6 87.14 38.69 86.56 38.69ZM76.39 29.12L76.39 38.51L74.87 38.51L74.87 29.12L76.39 29.12ZM84.06 32.96L88.48 32.96L88.48 32.84C88.46 32.42 88.38 32.01 88.24 31.62C88.1 31.23 87.88 30.9 87.58 30.65C87.29 30.39 86.88 30.27 86.36 30.27C86.02 30.27 85.7 30.35 85.41 30.5C85.12 30.65 84.87 30.88 84.67 31.18C84.46 31.48 84.3 31.85 84.19 32.28C84.13 32.49 84.09 32.72 84.06 32.96Z" fill="#FFFFFF" fill-opacity="1.000000" fill-rule="evenodd"/>
</svg>
